<svg width="20" height="20" viewBox="0 0 20 20" fill="none" xmlns="http://www.w3.org/2000/svg">
<path d="M11.8 10.18H11.05V10.93H11.8V10.18ZM14.41 10.54L15.1439 10.6945L15.16 10.6181V10.54H14.41ZM14.05 12.25L13.3161 12.0955L13.3 12.1719V12.25H14.05ZM11.8 12.43V11.68H11.05V12.43H11.8ZM11.8 19V19.75H12.55V19H11.8ZM9.1 19H8.35V19.75H9.1V19ZM9.1 12.52H9.85V11.77H9.1V12.52ZM9.1 10.27V11.02H9.85V10.27H9.1ZM11.05 7.57V10.18H12.55V7.57H11.05ZM11.8 10.93H14.14V9.43H11.8V10.93ZM14.14 10.93C14.0546 10.93 13.9632 10.9072 13.8802 10.8588C13.8006 10.8123 13.7491 10.7544 13.7185 10.7085C13.663 10.6254 13.66 10.5613 13.66 10.54H15.16C15.16 10.3387 15.112 10.0946 14.9665 9.87648C14.8063 9.63612 14.5209 9.43 14.14 9.43V10.93ZM13.6761 10.3855L13.3161 12.0955L14.7839 12.4045L15.1439 10.6945L13.6761 10.3855ZM13.3 12.25C13.3 12.0207 13.4109 11.8743 13.4537 11.8249C13.5029 11.7681 13.5471 11.7401 13.5629 11.7306C13.5825 11.7189 13.6015 11.7102 13.623 11.703C13.6367 11.6984 13.6931 11.68 13.78 11.68V13.18C14.0094 13.18 14.2119 13.0905 14.3346 13.0169C14.4067 12.9736 14.5015 12.9063 14.5872 12.8073C14.6666 12.7157 14.8 12.5243 14.8 12.25H13.3ZM13.78 11.68H11.8V13.18H13.78V11.68ZM11.05 12.43V19H12.55V12.43H11.05ZM11.8 18.25H9.1V19.75H11.8V18.25ZM9.85 19V12.52H8.35V19H9.85ZM9.1 11.77H7.57V13.27H9.1V11.77ZM7.57 11.77C7.59561 11.77 7.75257 11.7769 7.89783 11.9222C8.04309 12.0674 8.05 12.2244 8.05 12.25H6.55C6.55 12.4556 6.60191 12.7476 6.83717 12.9828C7.07243 13.2181 7.36439 13.27 7.57 13.27V11.77ZM8.05 12.25V10.54H6.55V12.25H8.05ZM8.05 10.54C8.05 10.5656 8.04309 10.7226 7.89783 10.8678C7.75257 11.0131 7.59561 11.02 7.57 11.02V9.52C7.36439 9.52 7.07243 9.57191 6.83717 9.80717C6.60191 10.0424 6.55 10.3344 6.55 10.54H8.05ZM7.57 11.02H9.1V9.52H7.57V11.02ZM9.85 10.27V7.3H8.35V10.27H9.85ZM9.85 7.3C9.85 6.18421 10.6842 5.35 11.8 5.35V3.85C9.85579 3.85 8.35 5.35579 8.35 7.3H9.85ZM11.8 5.35H14.23V3.85H11.8V5.35ZM14.23 5.35C14.2044 5.35 14.0474 5.34309 13.9022 5.19783C13.7569 5.05257 13.75 4.89561 13.75 4.87H15.25C15.25 4.66439 15.1981 4.37243 14.9628 4.13717C14.7276 3.90191 14.4356 3.85 14.23 3.85V5.35ZM13.75 4.87V7.03H15.25V4.87H13.75ZM13.75 7.03C13.75 7.00439 13.7569 6.84743 13.9022 6.70217C14.0474 6.55691 14.2044 6.55 14.23 6.55V8.05C14.4356 8.05 14.7276 7.99809 14.9628 7.76283C15.1981 7.52757 15.25 7.23561 15.25 7.03H13.75ZM14.23 6.55H12.07V8.05H14.23V6.55ZM12.07 6.55C11.8644 6.55 11.5724 6.60191 11.3372 6.83717C11.1019 7.07243 11.05 7.36439 11.05 7.57H12.55C12.55 7.59561 12.5431 7.75257 12.3978 7.89783C12.2526 8.04309 12.0956 8.05 12.07 8.05V6.55ZM12.7 18.25H7.3V19.75H12.7V18.25ZM7.3 18.25C5.12397 18.25 3.79586 17.8102 2.99283 17.0072C2.1898 16.2041 1.75 14.876 1.75 12.7H0.25C0.25 15.024 0.710201 16.8459 1.93217 18.0678C3.15414 19.2898 4.97603 19.75 7.3 19.75V18.25ZM1.75 12.7V7.3H0.25V12.7H1.75ZM1.75 7.3C1.75 5.12397 2.1898 3.79586 2.99283 2.99283C3.79586 2.1898 5.12397 1.75 7.3 1.75V0.25C4.97603 0.25 3.15414 0.710201 1.93217 1.93217C0.710201 3.15414 0.25 4.97603 0.25 7.3H1.75ZM7.3 1.75H12.7V0.25H7.3V1.75ZM12.7 1.75C14.876 1.75 16.2041 2.1898 17.0072 2.99283C17.8102 3.79586 18.25 5.12397 18.25 7.3H19.75C19.75 4.97603 19.2898 3.15414 18.0678 1.93217C16.8459 0.710201 15.024 0.25 12.7 0.25V1.75ZM18.25 7.3V12.7H19.75V7.3H18.25ZM18.25 12.7C18.25 14.876 17.8102 16.2041 17.0072 17.0072C16.2041 17.8102 14.876 18.25 12.7 18.25V19.75C15.024 19.75 16.8459 19.2898 18.0678 18.0678C19.2898 16.8459 19.75 15.024 19.75 12.7H18.25Z" fill="#CCCCCC"/>
</svg>
