<svg width="14" height="14" viewBox="0 0 14 14" fill="none" xmlns="http://www.w3.org/2000/svg">
<path d="M12.8332 12.34L11.6665 11.206M6.70817 11.773C7.43591 11.773 8.15653 11.6337 8.82887 11.363C9.50122 11.0923 10.1121 10.6955 10.6267 10.1953C11.1413 9.69515 11.5495 9.10134 11.828 8.44782C12.1065 7.7943 12.2498 7.09387 12.2498 6.3865C12.2498 5.67914 12.1065 4.9787 11.828 4.32518C11.5495 3.67166 11.1413 3.07785 10.6267 2.57767C10.1121 2.07749 9.50122 1.68072 8.82887 1.41002C8.15653 1.13933 7.43591 1 6.70817 1C5.23843 1 3.82888 1.5675 2.78962 2.57767C1.75036 3.58783 1.1665 4.95791 1.1665 6.3865C1.1665 7.81509 1.75036 9.18517 2.78962 10.1953C3.82888 11.2055 5.23843 11.773 6.70817 11.773Z" stroke="#1F1C1B" stroke-width="1.5" stroke-linecap="round" stroke-linejoin="round"/>
</svg>
